<svg xmlns="http://www.w3.org/2000/svg" id="Layer_1" data-name="Layer 1" viewBox="0 0 96 96"><defs><style>.cls-1{fill:#c3d1dd}</style></defs><title>logo</title><rect width="14.89" height="39.72" x="15.73" y="35.38" class="cls-1"/><rect width="14.89" height="5.79" x="15.73" y="83.36" class="cls-1"/><rect width="14.89" height="52.95" x="36.42" y="22.14" class="cls-1"/><rect width="14.89" height="5.79" x="36.42" y="83.36" class="cls-1"/><rect width="14.89" height="68.67" x="57.1" y="6.42" class="cls-1"/><rect width="14.89" height="5.79" x="57.1" y="83.36" class="cls-1"/><rect width="4.12" height="5.79" x="31.45" y="48.61" class="cls-1"/><rect width="4.14" height="5.79" x="52.14" y="48.61" class="cls-1"/><path d="M96,84.81l-9.13-9.13a10.94,10.94,0,0,0,.85-4.23V59.6a11,11,0,0,0-11-11h-3V54.4h3a5.2,5.2,0,0,1,5.2,5.2v7.57h0v4.28a5.2,5.2,0,0,1-5.2,5.2H11a5.2,5.2,0,0,1-5.2-5.2V59.6A5.2,5.2,0,0,1,11,54.4h2.93V48.61H11a11,11,0,0,0-11,11V71.45a11,11,0,0,0,11,11H76.73a10.92,10.92,0,0,0,5.73-1.62l8.77,8.77Z" class="cls-1"/></svg>