<svg xmlns="http://www.w3.org/2000/svg" xmlns:xlink="http://www.w3.org/1999/xlink" id="Layer_1" width="16" height="16" x="0" y="0" enable-background="new 0 0 16 16" version="1.1" viewBox="0 0 16 16" xml:space="preserve"><path d="M10,2.5c0.551,0,1,0.449,1,1s-0.449,1-1,1s-1-0.449-1-1S9.449,2.5,10,2.5 M10,1.5c-1.105,0-2,0.895-2,2s0.895,2,2,2	s2-0.895,2-2S11.105,1.5,10,1.5L10,1.5z"/><path d="M12,12.5c0.551,0,1,0.449,1,1s-0.449,1-1,1s-1-0.449-1-1S11.449,12.5,12,12.5 M12,11.5c-1.105,0-2,0.895-2,2s0.895,2,2,2	s2-0.895,2-2S13.105,11.5,12,11.5L12,11.5z"/><path d="M4,7.5c0.551,0,1,0.449,1,1s-0.449,1-1,1s-1-0.449-1-1S3.449,7.5,4,7.5 M4,6.5c-1.105,0-2,0.895-2,2s0.895,2,2,2	s2-0.895,2-2S5.105,6.5,4,6.5L4,6.5z"/><rect width="8" height="1" y="3"/><rect width="4" height="1" x="12" y="3"/><rect width="2" height="1" y="8"/><rect width="10" height="1" x="6" y="8"/><rect width="2" height="1" x="14" y="13"/><rect width="10" height="1" x="0" y="13"/></svg>