<svg xmlns="http://www.w3.org/2000/svg" xmlns:xlink="http://www.w3.org/1999/xlink" id="Layer_1" data-name="Layer 1" viewBox="0 0 16 16"><defs><style>.cls-1{fill:none}.cls-10{fill-rule:evenodd}.cls-11{fill:#231f20}</style><clipPath id="clip-path"><rect width="15.81" height="13.48" x="-15.77" y="29.43" class="cls-1"/></clipPath><clipPath id="clip-path-2"><rect width="15.81" height="13.48" x="-808.99" y="397.71" class="cls-1"/></clipPath><clipPath id="clip-path-3"><rect width="15.81" height="13.48" x="-807.99" y="397.71" class="cls-1"/></clipPath><clipPath id="clip-path-4"><rect width="10.73" height=".43" x="-805.36" y="403.99" class="cls-1"/></clipPath><clipPath id="clip-path-5"><rect width="10.14" height=".43" x="-805.06" y="402.75" class="cls-1"/></clipPath><clipPath id="clip-path-6"><rect width="9.31" height=".43" x="-804.65" y="401.51" class="cls-1"/></clipPath><clipPath id="clip-path-7"><rect width="8.5" height=".43" x="-804.24" y="400.27" class="cls-1"/></clipPath><clipPath id="clip-path-8"><rect width="7.65" height=".43" x="-803.81" y="399.03" class="cls-1"/></clipPath></defs><title>HDFS_folder</title><path d="M12.85,1H3.36L.13,8.17l0,6.32H15.9V8.32ZM4,1.87h8.13l2.55,6H11.28l-.14.21C10.09,9.58,9,10.31,8,10.28c-1.71-.06-3-2.14-3-2.16l-.14-.23H1.32ZM14.92,13.63H1.08V8.75h3.2c.43.63,1.77,2.32,3.67,2.39H8c1.34,0,2.6-.81,3.78-2.39h3.09Z" class="cls-10"/><rect width="10.04" height="1" x="2.98" y="6.36" class="cls-11"/><rect width="7.97" height="1" x="4.06" y="4.4" class="cls-11"/><rect width="6.06" height="1" x="5.09" y="2.44" class="cls-11"/></svg>